<svg width="18" height="24" viewBox="0 0 18 24" fill="none" xmlns="http://www.w3.org/2000/svg">
<path d="M16.2692 3.69233H12.4615V3.00002C12.4615 1.85481 11.5298 0.923096 10.3846 0.923096H7.61539C6.47018 0.923096 5.53846 1.85481 5.53846 3.00002V3.69233H1.73077C0.776423 3.69233 0 4.46875 0 5.4231V7.84617C0 8.2285 0.309981 8.53848 0.692308 8.53848H1.07065L1.66876 21.0988C1.7216 22.2081 2.63285 23.0769 3.74331 23.0769H14.2567C15.3672 23.0769 16.2784 22.2081 16.3312 21.0988L16.9293 8.53848H17.3077C17.69 8.53848 18 8.2285 18 7.84617V5.4231C18 4.46875 17.2236 3.69233 16.2692 3.69233ZM6.92308 3.00002C6.92308 2.6183 7.23366 2.30771 7.61539 2.30771H10.3846C10.7663 2.30771 11.0769 2.6183 11.0769 3.00002V3.69233H6.92308V3.00002ZM1.38462 5.4231C1.38462 5.23224 1.53991 5.07694 1.73077 5.07694H16.2692C16.4601 5.07694 16.6154 5.23224 16.6154 5.4231V7.15386C16.402 7.15386 2.26874 7.15386 1.38462 7.15386V5.4231ZM14.9482 21.0329C14.9306 21.4027 14.6268 21.6923 14.2567 21.6923H3.74331C3.37314 21.6923 3.06939 21.4027 3.05182 21.0329L2.45683 8.53848H15.5432L14.9482 21.0329Z" fill="#979797"/>
<path d="M9.0009 20.3077C9.38323 20.3077 9.69321 19.9977 9.69321 19.6154V10.6154C9.69321 10.2331 9.38323 9.9231 9.0009 9.9231C8.61857 9.9231 8.30859 10.2331 8.30859 10.6154V19.6154C8.30859 19.9977 8.61853 20.3077 9.0009 20.3077Z" fill="#979797"/>
<path d="M12.4618 20.3077C12.8442 20.3077 13.1541 19.9977 13.1541 19.6154V10.6154C13.1541 10.2331 12.8442 9.9231 12.4618 9.9231C12.0795 9.9231 11.7695 10.2331 11.7695 10.6154V19.6154C11.7695 19.9977 12.0795 20.3077 12.4618 20.3077Z" fill="#979797"/>
<path d="M5.53801 20.3077C5.92034 20.3077 6.23032 19.9977 6.23032 19.6154V10.6154C6.23032 10.2331 5.92034 9.9231 5.53801 9.9231C5.15568 9.9231 4.8457 10.2331 4.8457 10.6154V19.6154C4.8457 19.9977 5.15564 20.3077 5.53801 20.3077Z" fill="#979797"/>
</svg>
