<svg width="64" height="56" viewBox="0 0 64 56" fill="none" xmlns="http://www.w3.org/2000/svg">
<path d="M59.5197 31.8672L57.8624 25.2379C58.3155 25.1416 58.6555 24.7396 58.6555 24.258V23.1891C58.6555 20.8684 56.7674 18.9804 54.4468 18.9804H46.8978V16.7757C46.8978 15.6337 45.9688 14.7047 44.8268 14.7047H30.79L39.32 11.2927C39.8339 11.0872 40.0838 10.504 39.8783 9.99011C39.6727 9.47636 39.0899 9.22624 38.5756 9.43186L31.5914 12.2255C33.7196 10.86 35.8253 9.35711 36.6269 8.30611C38.1875 6.25999 37.7922 3.32574 35.7461 1.76511C33.7 0.204363 30.7658 0.599738 29.2051 2.64586C28.0649 4.14111 26.5604 8.34249 25.5866 11.3031C24.6129 8.34274 23.1084 4.14111 21.9681 2.64586C20.4076 0.599738 17.4732 0.204613 15.4271 1.76511C13.381 3.32561 12.9859 6.25986 14.5464 8.30611C15.348 9.35724 17.4535 10.86 19.5819 12.2255L12.5976 9.43186C12.0835 9.22599 11.5005 9.47624 11.295 9.99011C11.0894 10.504 11.3394 11.0872 11.8532 11.2927L20.3832 14.7047H6.3465C5.2045 14.7047 4.2755 15.6337 4.2755 16.7757V34.947C4.2755 35.5004 4.72412 35.9491 5.27763 35.9491C5.831 35.9491 6.27975 35.5005 6.27975 34.947V16.7757C6.27975 16.7389 6.30963 16.709 6.3465 16.709H44.8266C44.8635 16.709 44.8934 16.7389 44.8934 16.7757V34.9472C44.8934 35.5006 45.342 35.9494 45.8955 35.9494C46.4489 35.9494 46.8976 35.5007 46.8976 34.9472V33.8112H58.7184C58.7195 33.8112 58.7204 33.8115 58.7215 33.8115C58.7226 33.8115 58.7236 33.8114 58.7248 33.8114C60.1792 33.8125 61.4142 34.7672 61.8382 36.0827H58.7223C58.1689 36.0827 57.7201 36.5314 57.7201 37.0849V39.2226C57.7201 40.954 59.1286 42.3625 60.86 42.3625H61.9958V46.7716H59.3755C58.5148 44.2864 56.1521 42.496 53.3778 42.496C50.6034 42.496 48.2406 44.2862 47.38 46.7716H46.8975V39.2225C46.8975 38.6691 46.4489 38.2204 45.8954 38.2204C45.342 38.2204 44.8932 38.669 44.8932 39.2225V46.7715H24.1021C23.2414 44.2862 20.8787 42.4959 18.1044 42.4959C15.33 42.4959 12.9672 44.2861 12.1066 46.7715H6.3465C6.30963 46.7715 6.27975 46.7416 6.27975 46.7047V44.5001H10.6221C11.1755 44.5001 11.6243 44.0515 11.6243 43.498C11.6243 42.9445 11.1756 42.4959 10.6221 42.4959H1.00213C0.44875 42.4959 0 42.9445 0 43.498C0 44.0515 0.448625 44.5001 1.00213 44.5001H4.27563V46.7047C4.27563 47.8467 5.20463 48.7757 6.34662 48.7757H11.7596C11.7594 48.798 11.7579 48.8201 11.7579 48.8425C11.7579 52.3419 14.605 55.189 18.1044 55.189C21.6038 55.189 24.4509 52.3419 24.4509 48.8425C24.4509 48.82 24.4494 48.798 24.4491 48.7757H47.0329C47.0326 48.798 47.0311 48.8201 47.0311 48.8425C47.0311 52.3419 49.8783 55.189 53.3776 55.189C56.877 55.189 59.7241 52.3419 59.7241 48.8425C59.7241 48.82 59.7226 48.798 59.7224 48.7757H62.9977C63.5511 48.7757 63.9999 48.3271 63.9999 47.7736V37.0847C64 34.4455 62.0529 32.2527 59.5197 31.8672ZM21.6125 11.1324C17.6596 8.67599 16.4871 7.54586 16.14 7.09061C15.2496 5.92324 15.4751 4.24911 16.6426 3.35874C17.1239 2.99174 17.6911 2.81436 18.2542 2.81436C19.057 2.81436 19.8512 3.17511 20.3746 3.86136C21.344 5.13236 22.8621 9.41024 23.8644 12.4929C23.188 12.0946 22.4105 11.6285 21.6125 11.1324ZM27.3091 12.4927C28.3114 9.41024 29.8295 5.13249 30.7987 3.86124C31.6891 2.69386 33.3633 2.46849 34.5306 3.35874C35.6981 4.24911 35.9235 5.92324 35.0332 7.09061C34.6861 7.54574 33.5136 8.67599 29.561 11.1322C28.7631 11.6282 27.9856 12.0945 27.3091 12.4927ZM46.8978 20.9844H54.4468C55.6624 20.9844 56.6514 21.9734 56.6514 23.189V23.2557H46.8978V20.9844ZM46.8978 31.807V25.26H55.8021L57.4389 31.807H46.8978ZM18.1044 53.1849C15.71 53.1849 13.762 51.2369 13.762 48.8425C13.762 46.4481 15.71 44.5001 18.1044 44.5001C20.4988 44.5001 22.4468 46.4481 22.4468 48.8425C22.4468 51.2369 20.4988 53.1849 18.1044 53.1849ZM53.3779 53.1849C50.9835 53.1849 49.0355 51.2369 49.0355 48.8425C49.0355 46.4481 50.9835 44.5001 53.3779 44.5001C55.7723 44.5001 57.7202 46.4481 57.7202 48.8425C57.7202 51.2369 55.7723 53.1849 53.3779 53.1849ZM61.9959 40.3581H60.8601C60.2339 40.3581 59.7244 39.8486 59.7244 39.2224V38.0866H61.9958L61.9959 40.3581Z" fill="#785D4C"/>
<path d="M18.1044 46.7715C16.9624 46.7715 16.0334 47.7005 16.0334 48.8425C16.0334 49.9845 16.9624 50.9135 18.1044 50.9135C19.2464 50.9135 20.1754 49.9845 20.1754 48.8425C20.1754 47.7005 19.2464 46.7715 18.1044 46.7715Z" fill="#785D4C"/>
<path d="M53.3779 46.7715C52.2359 46.7715 51.3069 47.7005 51.3069 48.8425C51.3069 49.9845 52.2359 50.9135 53.3779 50.9135C54.5199 50.9135 55.4489 49.9845 55.4489 48.8425C55.4489 47.7005 54.5199 46.7715 53.3779 46.7715Z" fill="#785D4C"/>
<path d="M41.62 42.4959H26.6555C26.1021 42.4959 25.6534 42.9445 25.6534 43.498C25.6534 44.0515 26.102 44.5001 26.6555 44.5001H41.62C42.1734 44.5001 42.6221 44.0515 42.6221 43.498C42.6221 42.9445 42.1735 42.4959 41.62 42.4959Z" fill="#785D4C"/>
<path d="M15.9666 38.2204H3.13987C2.5865 38.2204 2.13775 38.669 2.13775 39.2225C2.13775 39.776 2.58637 40.2246 3.13987 40.2246H15.9666C16.52 40.2246 16.9688 39.776 16.9688 39.2225C16.9688 38.669 16.52 38.2204 15.9666 38.2204Z" fill="#785D4C"/>
<path d="M15.9666 23.2557H11.691C11.1376 23.2557 10.6889 23.7044 10.6889 24.2579V32.809C10.6889 33.3624 11.1375 33.8111 11.691 33.8111C12.2445 33.8111 12.6931 33.3625 12.6931 32.809V29.5355H14.8978C15.4511 29.5355 15.8999 29.0869 15.8999 28.5334C15.8999 27.9799 15.4513 27.5312 14.8978 27.5312H12.6931V25.26H15.9666C16.52 25.26 16.9688 24.8114 16.9688 24.2579C16.9686 23.7045 16.52 23.2557 15.9666 23.2557Z" fill="#785D4C"/>
<path d="M23.8528 30.0054C24.8556 29.3485 25.5199 28.2157 25.5199 26.9301C25.5199 24.904 23.8716 23.2557 21.8455 23.2557H19.1733C18.6199 23.2557 18.1711 23.7044 18.1711 24.2579V32.809C18.1711 33.3624 18.6198 33.8111 19.1733 33.8111C19.7267 33.8111 20.1754 33.3625 20.1754 32.809V30.6044H21.8436L23.6839 33.3647C23.877 33.6544 24.1946 33.8111 24.5185 33.8111C24.7096 33.8111 24.9026 33.7566 25.0734 33.6426C25.534 33.3357 25.6584 32.7135 25.3512 32.2531L23.8528 30.0054ZM21.8455 28.6002H20.1754V25.26H21.8455C22.7665 25.26 23.5156 26.0091 23.5156 26.9301C23.5156 27.8511 22.7665 28.6002 21.8455 28.6002Z" fill="#785D4C"/>
<path d="M32 31.807H28.7265V29.5322C28.7486 29.5337 28.7708 29.5356 28.7932 29.5356H30.931C31.4844 29.5356 31.9331 29.087 31.9331 28.5335C31.9331 27.98 31.4845 27.5314 30.931 27.5314H28.7932C28.7706 27.5314 28.7486 27.5332 28.7265 27.5347V25.26H32C32.5534 25.26 33.0021 24.8114 33.0021 24.2579C33.0021 23.7045 32.5535 23.2557 32 23.2557H27.7244C27.171 23.2557 26.7222 23.7044 26.7222 24.2579V32.809C26.7222 33.3624 27.1709 33.8111 27.7244 33.8111H32C32.5534 33.8111 33.0021 33.3625 33.0021 32.809C33.0021 32.2555 32.5534 31.807 32 31.807Z" fill="#785D4C"/>
<path d="M39.4823 31.807H36.2088V29.5356H37.3445C37.8979 29.5356 38.3466 29.087 38.3466 28.5335C38.3466 27.98 37.898 27.5314 37.3445 27.5314H36.2088V25.26H39.4823C40.0356 25.26 40.4844 24.8114 40.4844 24.2579C40.4844 23.7045 40.0358 23.2557 39.4823 23.2557H35.2066C34.6533 23.2557 34.2045 23.7044 34.2045 24.2579V32.809C34.2045 33.3624 34.6531 33.8111 35.2066 33.8111H39.4823C40.0356 33.8111 40.4844 33.3625 40.4844 32.809C40.4844 32.2555 40.0356 31.807 39.4823 31.807Z" fill="#785D4C"/>
</svg>
