<svg width="87" height="43" viewBox="0 0 87 43" fill="none" xmlns="http://www.w3.org/2000/svg">
<g clip-path="url(#clip0_935_5353)">
<path fill-rule="evenodd" clip-rule="evenodd" d="M13.9531 28.6284H10.1952C4.33365 28.6284 8.59212 15.8482 13.527 15.8482H19.4642C20.4159 15.8482 22.0942 16.0279 22.9211 13.611L24.1987 9.85657H16.0572C11.6482 9.85657 8.2163 11.4507 5.73638 14.1254C1.45259 18.7026 -5.64456e-05 25.8513 1.02685 29.2711C2.00385 32.4342 4.65919 34.5168 8.81747 34.5682L12.049 34.5941H16.0322L17.0092 31.5855C17.7355 29.4511 16.1071 28.6284 13.9531 28.6284ZM59.6948 23.3312L60.9225 19.2425H47.8212C45.6418 19.2425 44.6649 19.8596 44.289 21.1454L43.0614 25.2341H56.163C58.3424 25.2341 59.3194 24.6169 59.6948 23.3312ZM41.1077 30.5313L39.8801 34.6196H52.9814C55.1358 34.6196 56.1377 34.0028 56.5135 32.7171L57.7412 28.6284H44.6395C42.4855 28.6284 41.5085 29.2455 41.1077 30.5313ZM62.7513 13.9708L63.9786 9.88245H50.8773C48.698 9.88245 47.721 10.4993 47.3452 11.785L46.1175 15.8737H59.2192C61.3735 15.8737 62.3502 15.2565 62.7513 13.9708ZM42.9612 14.7939C42.4103 10.9881 40.4313 9.88245 35.6216 9.88245H26.854L21.7437 25.2341H24.9753C26.9039 25.2341 27.8809 25.2596 28.9082 22.4311L31.0372 15.8482H34.2938C37.0746 15.8482 36.4481 19.4226 35.0454 22.8937C33.7928 25.9541 31.6135 28.6539 28.9831 28.6539H23.5472C21.3679 28.6539 20.3659 29.2711 19.9652 30.5568L18.6123 34.6455H22.5952L26.5032 34.6196C29.9601 34.5941 32.7908 34.3371 36.0976 31.2768C39.6045 28.0112 43.6629 19.6282 42.9612 14.7939ZM87 9.85657H79.4097L72.2702 17.648C71.4437 18.548 70.5919 19.4481 69.7653 20.5023H69.6901L73.2472 9.85657H67.0597L58.7182 34.6196H64.9053L67.5607 26.8283L70.3162 24.4368L72.4959 31.4827C73.172 33.6685 73.8737 34.6196 75.3766 34.6196H80.1111L75.2515 20.7852L87 9.85657Z" fill="#00B33C"/>
</g>
<defs>
<clipPath id="clip0_935_5353">
<rect width="87" height="43" fill="white"/>
</clipPath>
</defs>
</svg>
